<svg xmlns="http://www.w3.org/2000/svg" xmlns:xlink="http://www.w3.org/1999/xlink" viewBox="30.360519409179688 30.400001525878906 259.49525451660156 122.46247100830078" width="259.49525451660156px" height="122.46247100830078px"><path d="M 98.800,42.000 C 93.816,39.798 94.000,41.200 89.200,40.400" stroke-width="5.084" stroke="#555555" fill="none" stroke-linecap="round"/><path d="M 89.200,40.400 C 84.720,42.240 84.616,40.998 80.400,44.400" stroke-width="4.570" stroke="#555555" fill="none" stroke-linecap="round"/><path d="M 80.400,44.400 C 76.616,46.122 76.720,46.240 73.200,48.400" stroke-width="3.935" stroke="#555555" fill="none" stroke-linecap="round"/><path d="M 73.200,48.400 C 69.205,50.795 69.416,50.922 66.000,54.000" stroke-width="3.681" stroke="#555555" fill="none" stroke-linecap="round"/><path d="M 66.000,54.000 C 62.234,58.273 62.005,57.995 58.800,62.800" stroke-width="3.458" stroke="#555555" fill="none" stroke-linecap="round"/><path d="M 58.800,62.800 C 53.021,69.661 53.434,69.873 48.400,77.200" stroke-width="2.994" stroke="#555555" fill="none" stroke-linecap="round"/><path d="M 48.400,77.200 C 45.531,82.235 45.421,82.061 43.600,87.600" stroke-width="3.187" stroke="#555555" fill="none" stroke-linecap="round"/><path d="M 43.600,87.600 C 41.979,92.332 41.931,92.235 41.200,97.200" stroke-width="3.384" stroke="#555555" fill="none" stroke-linecap="round"/><path d="M 41.200,97.200 C 40.131,102.482 40.379,102.332 40.400,107.600" stroke-width="3.506" stroke="#555555" fill="none" stroke-linecap="round"/><path d="M 40.400,107.600 C 40.475,110.536 40.531,110.082 42.000,112.400" stroke-width="4.010" stroke="#555555" fill="none" stroke-linecap="round"/><path d="M 42.000,112.400 C 44.537,115.787 44.075,114.936 47.600,116.400" stroke-width="4.440" stroke="#555555" fill="none" stroke-linecap="round"/><path d="M 47.600,116.400 C 51.214,116.446 50.537,116.987 54.000,114.800" stroke-width="4.162" stroke="#555555" fill="none" stroke-linecap="round"/><path d="M 54.000,114.800 C 59.863,110.697 60.014,111.246 65.200,106.000" stroke-width="3.324" stroke="#555555" fill="none" stroke-linecap="round"/><path d="M 65.200,106.000 C 69.600,101.600 69.863,101.897 74.000,97.200" stroke-width="3.210" stroke="#555555" fill="none" stroke-linecap="round"/><path d="M 74.000,97.200 C 79.233,92.776 78.800,92.400 83.600,87.600" stroke-width="3.091" stroke="#555555" fill="none" stroke-linecap="round"/><path d="M 83.600,87.600 C 89.642,79.631 90.033,79.976 95.600,71.600" stroke-width="2.718" stroke="#555555" fill="none" stroke-linecap="round"/><path d="M 95.600,71.600 C 99.040,67.353 98.842,67.231 102.000,62.800" stroke-width="3.180" stroke="#555555" fill="none" stroke-linecap="round"/><path d="M 102.000,62.800 C 104.360,59.349 104.240,59.353 106.000,55.600" stroke-width="3.583" stroke="#555555" fill="none" stroke-linecap="round"/><path d="M 106.000,55.600 C 107.219,52.859 107.160,52.949 107.600,50.000" stroke-width="3.987" stroke="#555555" fill="none" stroke-linecap="round"/><path d="M 107.600,50.000 C 109.034,44.625 108.019,46.859 107.600,43.600" stroke-width="4.468" stroke="#555555" fill="none" stroke-linecap="round"/><path d="M 107.600,43.600 C 104.243,44.078 106.234,42.625 102.000,46.000" stroke-width="4.844" stroke="#555555" fill="none" stroke-linecap="round"/><path d="M 102.000,46.000 C 98.971,49.443 98.643,48.878 96.400,53.200" stroke-width="3.886" stroke="#555555" fill="none" stroke-linecap="round"/><path d="M 96.400,53.200 C 93.681,57.039 93.771,57.043 91.600,61.200" stroke-width="3.647" stroke="#555555" fill="none" stroke-linecap="round"/><path d="M 91.600,61.200 C 89.600,66.000 89.281,65.839 87.600,70.800" stroke-width="3.536" stroke="#555555" fill="none" stroke-linecap="round"/><path d="M 87.600,70.800 C 85.240,75.481 85.600,75.600 83.600,80.400" stroke-width="3.446" stroke="#555555" fill="none" stroke-linecap="round"/><path d="M 83.600,80.400 C 82.236,85.164 82.040,85.081 81.200,90.000" stroke-width="3.522" stroke="#555555" fill="none" stroke-linecap="round"/><path d="M 81.200,90.000 C 79.870,96.380 79.836,96.364 78.800,102.800" stroke-width="3.279" stroke="#555555" fill="none" stroke-linecap="round"/><path d="M 78.800,102.800 C 77.367,106.244 78.270,105.980 78.000,109.200" stroke-width="3.800" stroke="#555555" fill="none" stroke-linecap="round"/><path d="M 78.000,109.200 C 79.200,113.600 78.567,111.844 81.200,114.000" stroke-width="4.428" stroke="#555555" fill="none" stroke-linecap="round"/><path d="M 81.200,114.000 C 83.893,112.731 83.200,114.400 86.000,110.800" stroke-width="4.309" stroke="#555555" fill="none" stroke-linecap="round"/><path d="M 86.000,110.800 C 88.475,108.061 88.693,108.331 90.800,105.200" stroke-width="3.977" stroke="#555555" fill="none" stroke-linecap="round"/><path d="M 90.800,105.200 C 93.695,101.670 93.675,101.661 96.400,98.000" stroke-width="3.750" stroke="#555555" fill="none" stroke-linecap="round"/><path d="M 96.400,98.000 C 99.293,94.061 99.295,94.070 102.000,90.000" stroke-width="3.566" stroke="#555555" fill="none" stroke-linecap="round"/><path d="M 102.000,90.000 C 103.908,86.738 104.093,86.861 106.000,83.600" stroke-width="3.791" stroke="#555555" fill="none" stroke-linecap="round"/><path d="M 106.000,83.600 C 110.000,78.000 107.908,80.738 110.000,78.000" stroke-width="3.889" stroke="#555555" fill="none" stroke-linecap="round"/><path d="M 110.000,78.000 C 107.605,80.590 110.000,78.000 106.000,83.600" stroke-width="4.669" stroke="#555555" fill="none" stroke-linecap="round"/><path d="M 106.000,83.600 C 104.800,86.800 104.405,86.590 103.600,90.000" stroke-width="4.189" stroke="#555555" fill="none" stroke-linecap="round"/><path d="M 103.600,90.000 C 102.280,93.160 102.400,93.200 101.200,96.400" stroke-width="4.012" stroke="#555555" fill="none" stroke-linecap="round"/><path d="M 101.200,96.400 C 99.919,99.133 100.280,99.160 99.600,102.000" stroke-width="4.135" stroke="#555555" fill="none" stroke-linecap="round"/><path d="M 99.600,102.000 C 97.760,111.107 99.119,106.333 99.600,110.800" stroke-width="4.344" stroke="#555555" fill="none" stroke-linecap="round"/><path d="M 99.600,110.800 C 104.765,105.879 102.560,110.307 109.200,100.400" stroke-width="4.358" stroke="#555555" fill="none" stroke-linecap="round"/><path d="M 109.200,100.400 C 111.108,97.138 111.565,97.479 113.200,94.000" stroke-width="4.074" stroke="#555555" fill="none" stroke-linecap="round"/><path d="M 113.200,94.000 C 115.136,91.152 115.108,91.138 117.200,88.400" stroke-width="4.025" stroke="#555555" fill="none" stroke-linecap="round"/><path d="M 117.200,88.400 C 120.590,84.400 118.736,86.352 120.400,84.400" stroke-width="4.187" stroke="#555555" fill="none" stroke-linecap="round"/><path d="M 120.400,84.400 C 118.182,86.222 120.190,84.400 116.400,88.400" stroke-width="4.840" stroke="#555555" fill="none" stroke-linecap="round"/><path d="M 116.400,88.400 C 114.545,90.659 114.582,90.622 113.200,93.200" stroke-width="4.324" stroke="#555555" fill="none" stroke-linecap="round"/><path d="M 113.200,93.200 C 110.864,97.483 110.945,97.459 109.200,102.000" stroke-width="3.779" stroke="#555555" fill="none" stroke-linecap="round"/><path d="M 109.200,102.000 C 106.523,106.893 108.064,105.083 107.600,108.400" stroke-width="4.373" stroke="#555555" fill="none" stroke-linecap="round"/><path d="M 107.600,108.400 C 111.046,109.091 108.523,109.693 113.200,107.600" stroke-width="4.828" stroke="#555555" fill="none" stroke-linecap="round"/><path d="M 113.200,107.600 C 115.635,104.425 116.246,105.491 118.000,101.200" stroke-width="4.079" stroke="#555555" fill="none" stroke-linecap="round"/><path d="M 118.000,101.200 C 119.805,98.234 120.035,98.425 122.000,95.600" stroke-width="4.026" stroke="#555555" fill="none" stroke-linecap="round"/><path d="M 122.000,95.600 C 124.111,93.699 123.805,93.434 126.000,91.600" stroke-width="4.116" stroke="#555555" fill="none" stroke-linecap="round"/><path d="M 126.000,91.600 C 129.371,87.259 127.711,89.699 129.200,87.600" stroke-width="4.216" stroke="#555555" fill="none" stroke-linecap="round"/><path d="M 129.200,87.600 C 127.264,90.448 128.971,88.059 125.200,93.200" stroke-width="4.799" stroke="#555555" fill="none" stroke-linecap="round"/><path d="M 125.200,93.200 C 123.279,95.008 123.664,95.248 122.000,97.200" stroke-width="4.455" stroke="#555555" fill="none" stroke-linecap="round"/><path d="M 122.000,97.200 C 118.625,101.434 120.479,99.808 119.600,102.800" stroke-width="4.230" stroke="#555555" fill="none" stroke-linecap="round"/><path d="M 119.600,102.800 C 123.369,104.014 120.625,104.234 126.000,102.800" stroke-width="4.825" stroke="#555555" fill="none" stroke-linecap="round"/><path d="M 126.000,102.800 C 128.229,100.559 128.569,101.614 130.000,98.000" stroke-width="4.251" stroke="#555555" fill="none" stroke-linecap="round"/><path d="M 130.000,98.000 C 131.416,95.075 131.829,95.359 133.200,92.400" stroke-width="4.128" stroke="#555555" fill="none" stroke-linecap="round"/><path d="M 133.200,92.400 C 135.033,90.549 134.617,90.275 136.400,88.400" stroke-width="4.262" stroke="#555555" fill="none" stroke-linecap="round"/><path d="M 136.400,88.400 C 138.993,83.600 137.833,86.149 138.800,83.600" stroke-width="4.650" stroke="#555555" fill="none" stroke-linecap="round"/><path d="M 138.800,83.600 C 137.012,85.891 138.593,83.600 135.600,88.400" stroke-width="4.746" stroke="#555555" fill="none" stroke-linecap="round"/><path d="M 135.600,88.400 C 133.211,92.256 133.412,92.291 131.600,96.400" stroke-width="4.537" stroke="#555555" fill="none" stroke-linecap="round"/><path d="M 131.600,96.400 C 128.918,101.069 130.411,99.456 130.000,102.800" stroke-width="4.642" stroke="#555555" fill="none" stroke-linecap="round"/><path d="M 130.000,102.800 C 133.302,103.845 130.918,104.269 135.600,102.800" stroke-width="4.919" stroke="#555555" fill="none" stroke-linecap="round"/><path d="M 135.600,102.800 C 137.065,100.679 137.702,101.845 138.800,98.800" stroke-width="4.528" stroke="#555555" fill="none" stroke-linecap="round"/><path d="M 138.800,98.800 C 142.268,95.820 141.865,95.479 145.200,92.400" stroke-width="3.830" stroke="#555555" fill="none" stroke-linecap="round"/><path d="M 145.200,92.400 C 148.400,87.812 147.069,90.220 148.400,87.600" stroke-width="4.082" stroke="#555555" fill="none" stroke-linecap="round"/><path d="M 148.400,87.600 C 146.705,89.531 148.400,87.412 145.200,91.600" stroke-width="4.863" stroke="#555555" fill="none" stroke-linecap="round"/><path d="M 145.200,91.600 C 143.279,93.843 143.505,93.931 142.000,96.400" stroke-width="4.379" stroke="#555555" fill="none" stroke-linecap="round"/><path d="M 142.000,96.400 C 141.200,98.800 140.879,98.643 140.400,101.200" stroke-width="4.348" stroke="#555555" fill="none" stroke-linecap="round"/><path d="M 140.400,101.200 C 137.644,105.010 139.600,103.600 138.800,106.000" stroke-width="4.594" stroke="#555555" fill="none" stroke-linecap="round"/><path d="M 138.800,106.000 C 142.788,107.071 140.444,107.409 146.000,106.000" stroke-width="4.714" stroke="#555555" fill="none" stroke-linecap="round"/><path d="M 146.000,106.000 C 148.600,104.200 148.788,105.071 150.800,102.000" stroke-width="4.277" stroke="#555555" fill="none" stroke-linecap="round"/><path d="M 150.800,102.000 C 152.767,99.572 153.000,99.800 154.800,97.200" stroke-width="4.161" stroke="#555555" fill="none" stroke-linecap="round"/><path d="M 154.800,97.200 C 157.778,94.137 157.567,93.972 160.400,90.800" stroke-width="3.807" stroke="#555555" fill="none" stroke-linecap="round"/><path d="M 160.400,90.800 C 163.920,85.520 162.178,88.537 163.600,86.000" stroke-width="4.444" stroke="#555555" fill="none" stroke-linecap="round"/><path d="M 163.600,86.000 C 161.150,89.568 163.120,86.720 158.800,93.200" stroke-width="4.807" stroke="#555555" fill="none" stroke-linecap="round"/><path d="M 158.800,93.200 C 155.948,96.156 156.750,96.368 154.800,99.600" stroke-width="4.663" stroke="#555555" fill="none" stroke-linecap="round"/><path d="M 154.800,99.600 C 153.539,104.149 153.948,102.156 154.800,105.200" stroke-width="4.764" stroke="#555555" fill="none" stroke-linecap="round"/><path d="M 154.800,105.200 C 157.523,104.922 155.939,106.149 159.600,103.600" stroke-width="4.843" stroke="#555555" fill="none" stroke-linecap="round"/><path d="M 159.600,103.600 C 161.600,101.600 161.923,102.122 163.600,99.600" stroke-width="4.390" stroke="#555555" fill="none" stroke-linecap="round"/><path d="M 163.600,99.600 C 165.818,97.778 165.600,97.600 167.600,95.600" stroke-width="4.223" stroke="#555555" fill="none" stroke-linecap="round"/><path d="M 167.600,95.600 C 169.200,93.200 169.418,93.378 170.800,90.800" stroke-width="4.249" stroke="#555555" fill="none" stroke-linecap="round"/><path d="M 170.800,90.800 C 174.446,85.406 172.400,88.400 174.000,86.000" stroke-width="4.168" stroke="#555555" fill="none" stroke-linecap="round"/><path d="M 174.000,86.000 C 171.004,89.877 173.246,87.006 168.400,94.000" stroke-width="4.738" stroke="#555555" fill="none" stroke-linecap="round"/><path d="M 168.400,94.000 C 164.884,97.567 166.204,97.477 164.400,101.200" stroke-width="4.589" stroke="#555555" fill="none" stroke-linecap="round"/><path d="M 164.400,101.200 C 165.162,106.298 164.084,103.567 166.800,106.000" stroke-width="4.915" stroke="#555555" fill="none" stroke-linecap="round"/><path d="M 166.800,106.000 C 170.337,103.076 169.562,105.498 173.200,99.600" stroke-width="4.574" stroke="#555555" fill="none" stroke-linecap="round"/><path d="M 173.200,99.600 C 175.600,96.000 175.937,96.276 178.000,92.400" stroke-width="3.886" stroke="#555555" fill="none" stroke-linecap="round"/><path d="M 178.000,92.400 C 181.365,87.106 179.600,90.000 181.200,87.600" stroke-width="4.100" stroke="#555555" fill="none" stroke-linecap="round"/><path d="M 181.200,87.600 C 178.949,91.084 180.965,88.306 177.200,94.800" stroke-width="4.813" stroke="#555555" fill="none" stroke-linecap="round"/><path d="M 177.200,94.800 C 174.110,99.821 175.749,97.884 174.800,101.200" stroke-width="4.687" stroke="#555555" fill="none" stroke-linecap="round"/><path d="M 174.800,101.200 C 177.612,100.991 175.310,102.221 179.600,99.600" stroke-width="4.980" stroke="#555555" fill="none" stroke-linecap="round"/><path d="M 179.600,99.600 C 181.295,97.669 181.612,98.191 182.800,95.600" stroke-width="4.454" stroke="#555555" fill="none" stroke-linecap="round"/><path d="M 182.800,95.600 C 184.162,93.005 184.495,93.269 186.000,90.800" stroke-width="4.225" stroke="#555555" fill="none" stroke-linecap="round"/><path d="M 186.000,90.800 C 188.119,88.011 188.162,88.205 190.800,86.000" stroke-width="4.126" stroke="#555555" fill="none" stroke-linecap="round"/><path d="M 190.800,86.000 C 195.600,83.230 192.919,84.411 195.600,83.600" stroke-width="4.744" stroke="#555555" fill="none" stroke-linecap="round"/><path d="M 195.600,83.600 C 192.998,85.402 195.600,84.030 190.800,87.600" stroke-width="4.749" stroke="#555555" fill="none" stroke-linecap="round"/><path d="M 190.800,87.600 C 188.935,89.431 188.998,89.402 187.600,91.600" stroke-width="4.397" stroke="#555555" fill="none" stroke-linecap="round"/><path d="M 187.600,91.600 C 182.832,97.715 185.735,94.631 184.400,98.000" stroke-width="4.569" stroke="#555555" fill="none" stroke-linecap="round"/><path d="M 184.400,98.000 C 190.836,96.260 187.232,98.515 196.400,93.200" stroke-width="4.774" stroke="#555555" fill="none" stroke-linecap="round"/><path d="M 196.400,93.200 C 198.511,91.299 198.836,91.860 200.400,89.200" stroke-width="4.373" stroke="#555555" fill="none" stroke-linecap="round"/><path d="M 200.400,89.200 C 204.178,84.766 202.111,87.299 203.600,85.200" stroke-width="4.337" stroke="#555555" fill="none" stroke-linecap="round"/><path d="M 203.600,85.200 C 200.173,88.203 202.578,85.966 197.200,91.600" stroke-width="4.827" stroke="#555555" fill="none" stroke-linecap="round"/><path d="M 197.200,91.600 C 194.444,94.594 194.573,94.603 192.400,98.000" stroke-width="4.613" stroke="#555555" fill="none" stroke-linecap="round"/><path d="M 192.400,98.000 C 188.931,102.888 190.844,100.594 190.000,103.600" stroke-width="4.722" stroke="#555555" fill="none" stroke-linecap="round"/><path d="M 190.000,103.600 C 194.027,103.139 191.331,104.488 197.200,101.200" stroke-width="4.943" stroke="#555555" fill="none" stroke-linecap="round"/><path d="M 197.200,101.200 C 200.647,97.802 201.227,98.739 204.400,94.800" stroke-width="3.845" stroke="#555555" fill="none" stroke-linecap="round"/><path d="M 204.400,94.800 C 206.664,92.953 206.647,93.002 209.200,91.600" stroke-width="4.087" stroke="#555555" fill="none" stroke-linecap="round"/><path d="M 209.200,91.600 C 213.177,87.970 212.664,89.753 216.400,88.400" stroke-width="4.394" stroke="#555555" fill="none" stroke-linecap="round"/><path d="M 216.400,88.400 C 221.371,90.640 219.177,88.770 221.200,93.200" stroke-width="4.778" stroke="#555555" fill="none" stroke-linecap="round"/><path d="M 221.200,93.200 C 218.713,97.093 220.971,96.640 215.600,100.400" stroke-width="4.512" stroke="#555555" fill="none" stroke-linecap="round"/><path d="M 215.600,100.400 C 212.115,103.741 212.313,103.893 208.400,106.800" stroke-width="3.825" stroke="#555555" fill="none" stroke-linecap="round"/><path d="M 208.400,106.800 C 205.322,109.385 205.315,109.341 202.000,111.600" stroke-width="3.825" stroke="#555555" fill="none" stroke-linecap="round"/><path d="M 202.000,111.600 C 199.238,113.272 199.322,113.385 196.400,114.800" stroke-width="3.952" stroke="#555555" fill="none" stroke-linecap="round"/><path d="M 196.400,114.800 C 191.404,116.613 194.038,116.072 191.600,117.200" stroke-width="4.173" stroke="#555555" fill="none" stroke-linecap="round"/><path d="M 191.600,117.200 C 194.404,117.078 191.804,117.813 197.200,117.200" stroke-width="4.833" stroke="#555555" fill="none" stroke-linecap="round"/><path d="M 197.200,117.200 C 203.738,116.956 203.604,117.478 210.000,118.000" stroke-width="4.283" stroke="#555555" fill="none" stroke-linecap="round"/><path d="M 210.000,118.000 C 215.246,118.091 213.338,118.556 216.400,120.400" stroke-width="4.540" stroke="#555555" fill="none" stroke-linecap="round"/><path d="M 216.400,120.400 C 216.596,124.682 217.646,122.891 214.800,127.600" stroke-width="4.787" stroke="#555555" fill="none" stroke-linecap="round"/><path d="M 214.800,127.600 C 212.652,129.769 213.396,129.882 210.000,130.800" stroke-width="4.360" stroke="#555555" fill="none" stroke-linecap="round"/><path d="M 210.000,130.800 C 205.291,132.912 205.452,132.569 200.400,133.200" stroke-width="4.590" stroke="#555555" fill="none" stroke-linecap="round"/><path d="M 200.400,133.200 C 191.549,133.220 191.691,133.712 182.800,132.400" stroke-width="3.060" stroke="#555555" fill="none" stroke-linecap="round"/><path d="M 182.800,132.400 C 175.765,132.006 178.749,132.020 174.800,130.800" stroke-width="3.948" stroke="#555555" fill="none" stroke-linecap="round"/><path d="M 245.200,95.600 C 239.413,94.381 240.400,96.000 235.600,96.400" stroke-width="5.550" stroke="#555555" fill="none" stroke-linecap="round"/><path d="M 235.600,96.400 C 233.600,99.600 232.613,97.981 231.600,102.800" stroke-width="4.852" stroke="#555555" fill="none" stroke-linecap="round"/><path d="M 231.600,102.800 C 226.706,108.842 229.600,106.000 227.600,109.200" stroke-width="4.858" stroke="#555555" fill="none" stroke-linecap="round"/><path d="M 227.600,109.200 C 232.007,107.275 228.706,109.642 235.600,104.400" stroke-width="4.913" stroke="#555555" fill="none" stroke-linecap="round"/><path d="M 235.600,104.400 C 237.333,101.733 238.007,102.475 239.600,99.600" stroke-width="4.324" stroke="#555555" fill="none" stroke-linecap="round"/><path d="M 239.600,99.600 C 244.421,95.625 244.133,95.333 249.200,91.600" stroke-width="4.174" stroke="#555555" fill="none" stroke-linecap="round"/><path d="M 249.200,91.600 C 254.616,86.248 252.021,89.225 254.800,86.800" stroke-width="4.462" stroke="#555555" fill="none" stroke-linecap="round"/><path d="M 254.800,86.800 C 252.564,90.520 255.016,87.448 250.000,94.000" stroke-width="4.813" stroke="#555555" fill="none" stroke-linecap="round"/><path d="M 250.000,94.000 C 246.594,97.854 246.964,98.120 243.600,102.000" stroke-width="4.436" stroke="#555555" fill="none" stroke-linecap="round"/><path d="M 243.600,102.000 C 239.109,108.891 241.394,105.054 239.600,108.400" stroke-width="4.552" stroke="#555555" fill="none" stroke-linecap="round"/><path d="M 239.600,108.400 C 242.464,103.680 240.309,107.691 246.000,99.600" stroke-width="4.834" stroke="#555555" fill="none" stroke-linecap="round"/><path d="M 246.000,99.600 C 247.815,97.711 247.664,97.680 250.000,96.400" stroke-width="4.464" stroke="#555555" fill="none" stroke-linecap="round"/><path d="M 250.000,96.400 C 253.817,93.794 253.815,94.111 258.000,92.400" stroke-width="4.437" stroke="#555555" fill="none" stroke-linecap="round"/><path d="M 258.000,92.400 C 263.847,90.310 261.017,91.394 264.400,91.600" stroke-width="4.637" stroke="#555555" fill="none" stroke-linecap="round"/><path d="M 264.400,91.600 C 263.083,95.496 265.047,93.110 260.400,98.000" stroke-width="4.809" stroke="#555555" fill="none" stroke-linecap="round"/><path d="M 260.400,98.000 C 256.475,100.536 257.083,101.096 252.400,102.800" stroke-width="3.920" stroke="#555555" fill="none" stroke-linecap="round"/><path d="M 252.400,102.800 C 249.200,104.400 249.275,104.536 246.000,106.000" stroke-width="3.947" stroke="#555555" fill="none" stroke-linecap="round"/><path d="M 246.000,106.000 C 240.144,107.344 243.600,107.200 241.200,108.400" stroke-width="4.129" stroke="#555555" fill="none" stroke-linecap="round"/><path d="M 241.200,108.400 C 247.109,111.081 243.744,110.944 253.200,113.200" stroke-width="4.523" stroke="#555555" fill="none" stroke-linecap="round"/><path d="M 253.200,113.200 C 256.400,114.000 256.309,114.281 259.600,114.800" stroke-width="4.131" stroke="#555555" fill="none" stroke-linecap="round"/><path d="M 259.600,114.800 C 264.662,115.385 264.400,116.000 269.200,117.200" stroke-width="3.649" stroke="#555555" fill="none" stroke-linecap="round"/><path d="M 269.200,117.200 C 275.949,119.107 272.662,118.585 275.600,121.200" stroke-width="4.268" stroke="#555555" fill="none" stroke-linecap="round"/><path d="M 275.600,121.200 C 271.943,124.732 275.149,123.907 267.600,126.800" stroke-width="4.566" stroke="#555555" fill="none" stroke-linecap="round"/><path d="M 267.600,126.800 C 263.252,128.263 263.543,128.732 258.800,129.200" stroke-width="3.892" stroke="#555555" fill="none" stroke-linecap="round"/><path d="M 258.800,129.200 C 255.613,129.811 255.652,129.863 252.400,130.000" stroke-width="4.020" stroke="#555555" fill="none" stroke-linecap="round"/><path d="M 252.400,130.000 C 248.787,130.211 248.813,130.211 245.200,130.000" stroke-width="3.921" stroke="#555555" fill="none" stroke-linecap="round"/><path d="M 245.200,130.000 C 241.953,129.831 241.987,129.811 238.800,129.200" stroke-width="3.982" stroke="#555555" fill="none" stroke-linecap="round"/><path d="M 254.000,53.200 C 249.090,56.791 249.600,57.200 245.200,61.200" stroke-width="5.118" stroke="#555555" fill="none" stroke-linecap="round"/><path d="M 245.200,61.200 C 243.566,63.981 243.090,63.591 242.000,66.800" stroke-width="4.393" stroke="#555555" fill="none" stroke-linecap="round"/><path d="M 242.000,66.800 C 237.364,74.680 237.566,74.781 233.200,82.800" stroke-width="3.202" stroke="#555555" fill="none" stroke-linecap="round"/><path d="M 233.200,82.800 C 229.656,90.427 229.364,90.280 226.000,98.000" stroke-width="2.930" stroke="#555555" fill="none" stroke-linecap="round"/><path d="M 226.000,98.000 C 224.000,102.000 224.056,102.027 222.000,106.000" stroke-width="3.421" stroke="#555555" fill="none" stroke-linecap="round"/><path d="M 222.000,106.000 C 220.206,109.120 220.400,109.200 218.800,112.400" stroke-width="3.734" stroke="#555555" fill="none" stroke-linecap="round"/><path d="M 218.800,112.400 C 216.386,117.200 217.806,114.720 217.200,117.200" stroke-width="4.135" stroke="#555555" fill="none" stroke-linecap="round"/><path d="M 260.400,68.400 C 264.935,61.453 262.800,64.000 265.200,59.600" stroke-width="4.310" stroke="#555555" fill="none" stroke-linecap="round"/><path d="M 265.200,59.600 C 262.817,60.859 265.335,58.653 261.200,62.800" stroke-width="4.940" stroke="#555555" fill="none" stroke-linecap="round"/><path d="M 261.200,62.800 C 258.995,65.885 258.817,65.659 257.200,69.200" stroke-width="4.159" stroke="#555555" fill="none" stroke-linecap="round"/><path d="M 257.200,69.200 C 254.637,75.994 253.795,75.485 250.800,82.000" stroke-width="4.219" stroke="#555555" fill="none" stroke-linecap="round"/><path d="M 250.800,82.000 C 244.448,89.763 245.437,90.394 238.800,98.000" stroke-width="2.848" stroke="#555555" fill="none" stroke-linecap="round"/><path d="M 238.800,98.000 C 235.407,104.144 234.848,103.763 231.600,110.000" stroke-width="3.273" stroke="#555555" fill="none" stroke-linecap="round"/><path d="M 201.200,94.800 C 206.370,93.602 206.400,94.000 211.600,93.200" stroke-width="4.731" stroke="#555555" fill="none" stroke-linecap="round"/><path d="M 211.600,93.200 C 216.802,93.082 216.770,92.802 222.000,93.200" stroke-width="4.208" stroke="#555555" fill="none" stroke-linecap="round"/><path d="M 222.000,93.200 C 234.405,93.494 234.402,93.482 246.800,94.000" stroke-width="2.975" stroke="#555555" fill="none" stroke-linecap="round"/><path d="M 246.800,94.000 C 253.997,94.512 254.005,94.294 261.200,94.800" stroke-width="3.023" stroke="#555555" fill="none" stroke-linecap="round"/><path d="M 135.600,59.600 C 131.466,62.223 132.400,62.800 129.200,66.000" stroke-width="2.177" stroke="#555555" fill="none" stroke-linecap="round"/><path d="M 129.200,66.000 C 128.182,71.068 126.666,70.223 126.000,75.600" stroke-width="3.663" stroke="#555555" fill="none" stroke-linecap="round"/><path d="M 126.000,75.600 C 122.460,81.636 122.982,81.868 118.800,87.600" stroke-width="3.238" stroke="#555555" fill="none" stroke-linecap="round"/><path d="M 118.800,87.600 C 111.766,99.309 111.660,99.236 104.400,110.800" stroke-width="2.398" stroke="#555555" fill="none" stroke-linecap="round"/><path d="M 104.400,110.800 C 101.339,114.645 101.766,114.909 98.800,118.800" stroke-width="3.115" stroke="#555555" fill="none" stroke-linecap="round"/><path d="M 98.800,118.800 C 96.717,121.849 96.939,121.845 95.600,125.200" stroke-width="4.008" stroke="#555555" fill="none" stroke-linecap="round"/><path d="M 95.600,125.200 C 92.922,129.861 94.717,127.849 94.800,130.800" stroke-width="4.110" stroke="#555555" fill="none" stroke-linecap="round"/><path d="M 94.800,130.800 C 101.596,131.328 99.322,133.061 108.400,131.600" stroke-width="4.067" stroke="#555555" fill="none" stroke-linecap="round"/><path d="M 108.400,131.600 C 111.615,131.388 111.596,131.728 114.800,131.600" stroke-width="4.125" stroke="#555555" fill="none" stroke-linecap="round"/><path d="M 114.800,131.600 C 117.667,131.717 117.615,131.788 120.400,132.400" stroke-width="4.146" stroke="#555555" fill="none" stroke-linecap="round"/><path d="M 120.400,132.400 C 127.168,133.286 124.067,133.317 127.600,134.800" stroke-width="4.436" stroke="#555555" fill="none" stroke-linecap="round"/><path d="M 127.600,134.800 C 124.943,136.739 127.968,136.086 122.000,138.000" stroke-width="4.637" stroke="#555555" fill="none" stroke-linecap="round"/><path d="M 122.000,138.000 C 119.260,139.123 119.343,139.139 116.400,139.600" stroke-width="4.265" stroke="#555555" fill="none" stroke-linecap="round"/><path d="M 116.400,139.600 C 112.008,140.168 112.060,140.323 107.600,140.400" stroke-width="3.854" stroke="#555555" fill="none" stroke-linecap="round"/><path d="M 107.600,140.400 C 104.341,140.819 104.408,140.568 101.200,140.400" stroke-width="4.014" stroke="#555555" fill="none" stroke-linecap="round"/><path d="M 101.200,140.400 C 95.986,140.344 98.341,140.019 95.600,138.800" stroke-width="4.522" stroke="#555555" fill="none" stroke-linecap="round"/><path d="M 95.600,138.800 C 97.170,135.823 95.186,137.144 99.600,134.000" stroke-width="4.665" stroke="#555555" fill="none" stroke-linecap="round"/><path d="M 99.600,134.000 C 102.328,132.605 101.970,132.223 105.200,131.600" stroke-width="4.285" stroke="#555555" fill="none" stroke-linecap="round"/><path d="M 105.200,131.600 C 110.355,129.830 110.328,129.805 115.600,128.400" stroke-width="3.583" stroke="#555555" fill="none" stroke-linecap="round"/><path d="M 115.600,128.400 C 119.172,127.440 119.155,127.430 122.800,126.800" stroke-width="3.814" stroke="#555555" fill="none" stroke-linecap="round"/><path d="M 122.800,126.800 C 129.380,125.460 125.972,126.240 129.200,126.000" stroke-width="3.995" stroke="#555555" fill="none" stroke-linecap="round"/><path d="M 129.200,126.000 C 124.328,126.639 128.980,126.660 122.000,129.200" stroke-width="4.731" stroke="#555555" fill="none" stroke-linecap="round"/><path d="M 122.000,129.200 C 119.792,133.568 120.328,131.039 121.200,134.800" stroke-width="4.781" stroke="#555555" fill="none" stroke-linecap="round"/><path d="M 121.200,134.800 C 125.577,136.388 122.992,136.368 128.400,134.800" stroke-width="4.683" stroke="#555555" fill="none" stroke-linecap="round"/><path d="M 128.400,134.800 C 132.299,131.639 131.977,132.788 134.000,127.600" stroke-width="4.486" stroke="#555555" fill="none" stroke-linecap="round"/><path d="M 134.000,127.600 C 134.800,123.598 135.499,124.039 134.800,119.600" stroke-width="4.512" stroke="#555555" fill="none" stroke-linecap="round"/><path d="M 134.800,119.600 C 132.822,114.991 134.800,115.998 134.000,112.400" stroke-width="4.599" stroke="#555555" fill="none" stroke-linecap="round"/><path d="M 134.000,112.400 C 136.400,110.800 134.822,110.591 138.800,110.800" stroke-width="4.790" stroke="#555555" fill="none" stroke-linecap="round"/><path d="M 138.800,110.800 C 141.183,111.656 141.200,110.800 143.600,112.400" stroke-width="4.462" stroke="#555555" fill="none" stroke-linecap="round"/><path d="M 143.600,112.400 C 149.053,112.089 146.383,113.256 149.200,114.000" stroke-width="4.850" stroke="#555555" fill="none" stroke-linecap="round"/><path d="M 149.200,114.000 C 146.364,118.218 149.453,117.289 144.400,122.800" stroke-width="4.722" stroke="#555555" fill="none" stroke-linecap="round"/><path d="M 144.400,122.800 C 142.249,126.814 142.764,126.618 142.000,130.800" stroke-width="4.576" stroke="#555555" fill="none" stroke-linecap="round"/><path d="M 142.000,130.800 C 141.995,135.439 141.849,133.214 143.600,135.600" stroke-width="4.796" stroke="#555555" fill="none" stroke-linecap="round"/><path d="M 143.600,135.600 C 147.028,133.886 145.995,135.839 150.000,131.600" stroke-width="4.641" stroke="#555555" fill="none" stroke-linecap="round"/><path d="M 150.000,131.600 C 152.218,129.778 152.228,129.886 154.000,127.600" stroke-width="4.290" stroke="#555555" fill="none" stroke-linecap="round"/><path d="M 154.000,127.600 C 157.412,123.224 155.818,125.378 157.200,122.800" stroke-width="4.227" stroke="#555555" fill="none" stroke-linecap="round"/><path d="M 157.200,122.800 C 153.960,123.909 157.012,122.424 153.200,126.000" stroke-width="4.880" stroke="#555555" fill="none" stroke-linecap="round"/><path d="M 153.200,126.000 C 152.614,129.422 152.360,128.309 154.000,131.600" stroke-width="4.840" stroke="#555555" fill="none" stroke-linecap="round"/><path d="M 154.000,131.600 C 156.423,135.246 155.414,133.822 158.800,134.800" stroke-width="4.788" stroke="#555555" fill="none" stroke-linecap="round"/><path d="M 158.800,134.800 C 163.282,132.498 162.823,134.046 166.800,129.200" stroke-width="4.487" stroke="#555555" fill="none" stroke-linecap="round"/><path d="M 166.800,129.200 C 169.424,126.148 169.682,126.498 171.600,122.800" stroke-width="3.944" stroke="#555555" fill="none" stroke-linecap="round"/><path d="M 197.200,63.600 C 192.470,66.477 193.600,67.200 190.000,70.800" stroke-width="5.251" stroke="#555555" fill="none" stroke-linecap="round"/><path d="M 190.000,70.800 C 187.307,78.441 186.070,77.677 184.400,86.000" stroke-width="4.437" stroke="#555555" fill="none" stroke-linecap="round"/><path d="M 184.400,86.000 C 180.943,93.906 181.307,94.041 178.000,102.000" stroke-width="3.067" stroke="#555555" fill="none" stroke-linecap="round"/><path d="M 178.000,102.000 C 174.722,111.575 174.543,111.506 171.600,121.200" stroke-width="2.761" stroke="#555555" fill="none" stroke-linecap="round"/><path d="M 171.600,121.200 C 169.963,126.389 169.922,126.375 168.400,131.600" stroke-width="3.197" stroke="#555555" fill="none" stroke-linecap="round"/><path d="M 168.400,131.600 C 165.674,137.039 167.563,134.389 166.800,137.200" stroke-width="3.794" stroke="#555555" fill="none" stroke-linecap="round"/><path d="M 274.000,52.400 C 267.255,56.365 271.200,55.200 268.400,58.000" stroke-width="1.491" stroke="#555555" fill="none" stroke-linecap="round"/><path d="M 268.400,58.000 C 276.271,57.903 270.055,60.365 279.600,60.400" stroke-width="2.932" stroke="#555555" fill="none" stroke-linecap="round"/><path d="M 279.600,60.400 C 279.343,63.111 281.071,61.503 278.000,65.200" stroke-width="3.935" stroke="#555555" fill="none" stroke-linecap="round"/><path d="M 278.000,65.200 C 275.283,68.477 275.743,68.711 272.400,71.600" stroke-width="3.854" stroke="#555555" fill="none" stroke-linecap="round"/><path d="M 272.400,71.600 C 270.709,74.013 270.483,73.677 268.400,75.600" stroke-width="4.060" stroke="#555555" fill="none" stroke-linecap="round"/><path d="M 165.200,55.600 C 170.420,55.255 170.400,55.600 175.600,55.600" stroke-width="5.016" stroke="#555555" fill="none" stroke-linecap="round"/><path d="M 175.600,55.600 C 186.753,56.928 182.420,56.055 189.200,57.200" stroke-width="4.502" stroke="#555555" fill="none" stroke-linecap="round"/><path d="M 189.200,57.200 C 185.972,56.960 190.353,57.328 182.800,56.400" stroke-width="4.925" stroke="#555555" fill="none" stroke-linecap="round"/><path d="M 182.800,56.400 C 179.241,55.360 179.172,55.760 175.600,54.800" stroke-width="4.120" stroke="#555555" fill="none" stroke-linecap="round"/><path d="M 175.600,54.800 C 162.426,53.626 168.841,53.760 162.000,53.200" stroke-width="4.018" stroke="#555555" fill="none" stroke-linecap="round"/><path d="M 162.000,53.200 C 168.000,53.200 161.626,52.826 174.000,53.200" stroke-width="4.517" stroke="#555555" fill="none" stroke-linecap="round"/><path d="M 174.000,53.200 C 180.400,53.200 180.400,53.200 186.800,53.200" stroke-width="3.443" stroke="#555555" fill="none" stroke-linecap="round"/><path d="M 186.800,53.200 C 190.400,53.200 190.400,53.200 194.000,53.200" stroke-width="3.784" stroke="#555555" fill="none" stroke-linecap="round"/><path d="M 194.000,53.200 C 199.945,52.855 196.800,53.200 199.600,53.200" stroke-width="4.460" stroke="#555555" fill="none" stroke-linecap="round"/><path d="M 68.400,124.400 C 64.139,127.592 64.800,128.000 61.200,131.600" stroke-width="5.305" stroke="#555555" fill="none" stroke-linecap="round"/><path d="M 61.200,131.600 C 59.226,134.157 59.739,133.592 59.600,136.400" stroke-width="4.771" stroke="#555555" fill="none" stroke-linecap="round"/><path d="M 59.600,136.400 C 60.518,139.796 60.026,138.957 62.800,141.200" stroke-width="4.783" stroke="#555555" fill="none" stroke-linecap="round"/><path d="M 62.800,141.200 C 66.441,142.800 65.718,142.996 70.000,142.800" stroke-width="4.669" stroke="#555555" fill="none" stroke-linecap="round"/></svg>